<svg height="1000" version="1.1" width="1000" xmlns="http://www.w3.org/2000/svg"><circle cx="500.0" cy="500.0" fill="#FF0000" r="34" stroke="#000000" /><circle cx="557.2" cy="500.0" fill="#FF0000" r="21" stroke="#000000" /><circle cx="554.45370804" cy="615.839516922" fill="#FF0000" r="92" stroke="#000000" /><circle cx="452.837892221" cy="543.853113799" fill="#FF0000" r="28" stroke="#000000" /><circle cx="443.339866084" cy="492.159768842" fill="#FF0000" r="21" stroke="#000000" /><circle cx="466.311050027" cy="451.320490453" fill="#FF0000" r="23" stroke="#000000" /><circle cx="517.99513013" cy="441.50542511" fill="#FF0000" r="25" stroke="#000000" /><circle cx="569.188057791" cy="453.074818497" fill="#FF0000" r="25" stroke="#000000" /><circle cx="412.002446802" cy="450.021298224" fill="#FF0000" r="29" stroke="#000000" /><circle cx="473.323451097" cy="373.584013121" fill="#FF0000" r="53" stroke="#000000" /><circle cx="396.168995678" cy="519.247923045" fill="#FF0000" r="31" stroke="#000000" /><circle cx="607.2" cy="500.0" fill="#FF0000" r="27" stroke="#000000" /><circle cx="553.94757906" cy="404.137292373" fill="#FF0000" r="24" stroke="#000000" /><circle cx="441.40430484" cy="594.038207707" fill="#FF0000" r="21" stroke="#000000" /><circle cx="399.517651497" cy="574.688269757" fill="#FF0000" r="22" stroke="#000000" /><circle cx="613.213155732" cy="453.475368145" fill="#FF0000" r="17" stroke="#000000" /><circle cx="611.066201699" cy="402.788586884" fill="#FF0000" r="31" stroke="#000000" /><circle cx="362.411141673" cy="472.045285474" fill="#FF0000" r="23" stroke="#000000" /><circle cx="350.852365333" cy="374.692286458" fill="#FF0000" r="66" stroke="#000000" /><circle cx="643.709294736" cy="538.588581296" fill="#FF0000" r="24" stroke="#000000" /><circle cx="431.113917331" cy="647.066201469" fill="#FF0000" r="31" stroke="#000000" /><circle cx="555.871648853" cy="345.81063962" fill="#FF0000" r="32" stroke="#000000" /><circle cx="657.235547894" cy="472.629532731" fill="#FF0000" r="28" stroke="#000000" /><circle cx="346.789719462" cy="557.37220527" fill="#FF0000" r="29" stroke="#000000" /><circle cx="392.043431872" cy="615.366283627" fill="#FF0000" r="17" stroke="#000000" /><circle cx="341.873101769" cy="509.297529558" fill="#FF0000" r="17" stroke="#000000" /><circle cx="656.140669903" cy="425.044471837" fill="#FF0000" r="17" stroke="#000000" /><circle cx="355.399068398" cy="605.166584901" fill="#FF0000" r="17" stroke="#000000" /><circle cx="661.898666408" cy="577.749481127" fill="#FF0000" r="17" stroke="#000000" /><circle cx="680.480476695" cy="516.131879369" fill="#FF0000" r="17" stroke="#000000" /><circle cx="320.261532653" cy="477.032123396" fill="#FF0000" r="17" stroke="#000000" /><circle cx="608.913454426" cy="352.690463836" fill="#FF0000" r="17" stroke="#000000" /><circle cx="515.468782868" cy="315.848549404" fill="#FF0000" r="16" stroke="#000000" /><circle cx="465.060569428" cy="682.688905496" fill="#FF0000" r="16" stroke="#000000" /><circle cx="378.947740726" cy="647.999292312" fill="#FF0000" r="16" stroke="#000000" /><circle cx="310.491037697" cy="525.373080355" fill="#FF0000" r="16" stroke="#000000" /><circle cx="420.108690687" cy="326.290994199" fill="#FF0000" r="16" stroke="#000000" /><circle cx="657.250188899" cy="386.38495658" fill="#FF0000" r="16" stroke="#000000" /><circle cx="689.955555115" cy="549.89836752" fill="#FF0000" r="16" stroke="#000000" /><circle cx="483.452837955" cy="302.291245949" fill="#FF0000" r="16" stroke="#000000" /><circle cx="690.132783852" cy="439.25722673" fill="#FF0000" r="16" stroke="#000000" /><circle cx="448.893802223" cy="305.398878347" fill="#FF0000" r="16" stroke="#000000" /><circle cx="667.33706974" cy="612.431601833" fill="#FF0000" r="16" stroke="#000000" /><circle cx="699.632323433" cy="487.878307023" fill="#FF0000" r="15" stroke="#000000" /><circle cx="306.689495001" cy="445.670554421" fill="#FF0000" r="15" stroke="#000000" /><circle cx="322.249486337" cy="596.801419889" fill="#FF0000" r="15" stroke="#000000" /><circle cx="643.491092859" cy="355.558779186" fill="#FF0000" r="15" stroke="#000000" /><circle cx="489.995928511" cy="704.955991749" fill="#FF0000" r="15" stroke="#000000" /><circle cx="597.926671256" cy="321.49698306" fill="#FF0000" r="14" stroke="#000000" /><circle cx="348.460895338" cy="637.764072814" fill="#FF0000" r="14" stroke="#000000" /><circle cx="433.893193835" cy="694.25995516" fill="#FF0000" r="14" stroke="#000000" /><circle cx="545.051946843" cy="298.986761417" fill="#FF0000" r="14" stroke="#000000" /><circle cx="684.563918855" cy="407.603464043" fill="#FF0000" r="14" stroke="#000000" /><circle cx="393.11471953" cy="677.03608903" fill="#FF0000" r="14" stroke="#000000" /><circle cx="301.061155935" cy="556.476334178" fill="#FF0000" r="14" stroke="#000000" /><circle cx="294.819463741" cy="497.173776285" fill="#FF0000" r="13" stroke="#000000" /><circle cx="693.454233494" cy="584.740188478" fill="#FF0000" r="13" stroke="#000000" /><circle cx="575.848567777" cy="301.604549532" fill="#FF0000" r="13" stroke="#000000" /><circle cx="710.721287532" cy="523.249494207" fill="#FF0000" r="12" stroke="#000000" /><circle cx="657.095667544" cy="643.543691046" fill="#FF0000" r="12" stroke="#000000" /><circle cx="289.061128595" cy="469.031749637" fill="#FF0000" r="12" stroke="#000000" /><circle cx="509.705650937" cy="286.22020596" fill="#FF0000" r="12" stroke="#000000" /><circle cx="628.369161636" cy="328.277204946" fill="#FF0000" r="12" stroke="#000000" /><circle cx="712.077035246" cy="461.183880653" fill="#FF0000" r="12" stroke="#000000" /><circle cx="457.451687195" cy="711.76789435" fill="#FF0000" r="12" stroke="#000000" /><circle cx="516.930222625" cy="716.539159419" fill="#FF0000" r="12" stroke="#000000" /><circle cx="322.939474907" cy="625.107195852" fill="#FF0000" r="11" stroke="#000000" /><circle cx="398.149154913" cy="307.255595788" fill="#FF0000" r="11" stroke="#000000" /><circle cx="354.610664919" cy="664.578556455" fill="#FF0000" r="11" stroke="#000000" /><circle cx="296.752749886" cy="583.154767278" fill="#FF0000" r="11" stroke="#000000" /><circle cx="281.317330949" cy="520.051190901" fill="#FF0000" r="11" stroke="#000000" /><circle cx="421.288006711" cy="294.991263327" fill="#FF0000" r="11" stroke="#000000" /><circle cx="671.129447106" cy="360.47454593" fill="#FF0000" r="11" stroke="#000000" /><circle cx="687.229134116" cy="379.970789647" fill="#FF0000" r="11" stroke="#000000" /><circle cx="645.778660931" cy="668.488640618" fill="#FF0000" r="11" stroke="#000000" /><circle cx="405.291474671" cy="701.668379351" fill="#FF0000" r="11" stroke="#000000" /><circle cx="466.185885976" cy="280.185610815" fill="#FF0000" r="10" stroke="#000000" /><circle cx="718.099544761" cy="547.442898047" fill="#FF0000" r="10" stroke="#000000" /><circle cx="724.0" cy="500.0" fill="#FF0000" r="10" stroke="#000000" /><circle cx="540.676849683" cy="720.682473024" fill="#FF0000" r="10" stroke="#000000" /><circle cx="288.467872919" cy="422.739407118" fill="#FF0000" r="10" stroke="#000000" /><circle cx="710.299114342" cy="419.443668735" fill="#FF0000" r="10" stroke="#000000" /><circle cx="488.289379408" cy="274.70414703" fill="#FF0000" r="10" stroke="#000000" /><circle cx="714.57753705" cy="570.93997881" fill="#FF0000" r="10" stroke="#000000" /><circle cx="697.729868202" cy="609.448157686" fill="#FF0000" r="10" stroke="#000000" /><circle cx="277.706749219" cy="542.926339902" fill="#FF0000" r="10" stroke="#000000" /><circle cx="533.490509753" cy="275.68632285" fill="#FF0000" r="10" stroke="#000000" /><circle cx="279.599292718" cy="443.208378878" fill="#FF0000" r="10" stroke="#000000" /><circle cx="536.495497311" cy="473.333191492" fill="#FF0000" r="9" stroke="#000000" /><circle cx="420.633373069" cy="410.528783793" fill="#FF0000" r="9" stroke="#000000" /><circle cx="334.177237649" cy="449.989486242" fill="#FF0000" r="9" stroke="#000000" /><circle cx="618.579607872" cy="307.137778202" fill="#FF0000" r="9" stroke="#000000" /><circle cx="682.259398306" cy="634.98056056" fill="#FF0000" r="9" stroke="#000000" /><circle cx="630.78257495" cy="685.294787" fill="#FF0000" r="9" stroke="#000000" /><circle cx="369.223227888" cy="679.886619502" fill="#FF0000" r="8" stroke="#000000" /><circle cx="598.952234355" cy="297.259241108" fill="#FF0000" r="8" stroke="#000000" /><circle cx="717.820252778" cy="439.747718052" fill="#FF0000" r="8" stroke="#000000" /><circle cx="725.502070134" cy="479.856108485" fill="#FF0000" r="8" stroke="#000000" /><circle cx="562.89769447" cy="282.096076147" fill="#FF0000" r="8" stroke="#000000" /><circle cx="444.487799225" cy="429.159365015" fill="#FF0000" r="6" stroke="#000000" /><circle cx="490.350109421" cy="540.053958753" fill="#FF0000" r="5" stroke="#000000" /><circle cx="417.31380624" cy="610.485263096" fill="#FF0000" r="6" stroke="#000000" /><circle cx="576.502279882" cy="381.320426472" fill="#FF0000" r="6" stroke="#000000" /><circle cx="632.834844918" cy="437.508848822" fill="#FF0000" r="6" stroke="#000000" /><circle cx="523.066345394" cy="409.286694966" fill="#FF0000" r="5" stroke="#000000" /><circle cx="419.045188706" cy="553.071258967" fill="#FF0000" r="5" stroke="#000000" /><circle cx="434.695934975" cy="420.607184889" fill="#FF0000" r="5" stroke="#000000" /><circle cx="587.930599385" cy="370.658708481" fill="#FF0000" r="6" stroke="#000000" /><circle cx="275.165559689" cy="487.173681357" fill="#FF0000" r="7" stroke="#000000" /><circle cx="649.370943593" cy="331.467032275" fill="#FF0000" r="7" stroke="#000000" /><circle cx="394.037731577" cy="481.298190712" fill="#FF0000" r="5" stroke="#000000" /><circle cx="305.549098783" cy="614.386218645" fill="#FF0000" r="7" stroke="#000000" /><circle cx="610.517683274" cy="533.899877341" fill="#FF0000" r="5" stroke="#000000" /><circle cx="565.411186055" cy="716.327013428" fill="#FF0000" r="7" stroke="#000000" /><circle cx="476.205084585" cy="724.743858649" fill="#FF0000" r="7" stroke="#000000" /><circle cx="533.493548687" cy="380.193730563" fill="#FF0000" r="5" stroke="#000000" /><circle cx="369.246731803" cy="626.024374055" fill="#FF0000" r="6" stroke="#000000" /><circle cx="376.131160086" cy="443.852778356" fill="#FF0000" r="5" stroke="#000000" /><circle cx="326.23688062" cy="645.132140972" fill="#FF0000" r="7" stroke="#000000" /><circle cx="437.064743615" cy="284.189449971" fill="#FF0000" r="6" stroke="#000000" /><circle cx="435.969744352" cy="718.407615164" fill="#FF0000" r="8" stroke="#000000" /><circle cx="641.120007554" cy="504.752206641" fill="#FF0000" r="5" stroke="#000000" /><circle cx="612.679075629" cy="699.589744014" fill="#FF0000" r="8" stroke="#000000" /></svg>