<svg height="1000" version="1.1" width="1000" xmlns="http://www.w3.org/2000/svg"><circle cx="500.0" cy="500.0" fill="#FF0000" r="8" stroke="#000000" /><circle cx="544.8" cy="500.0" fill="#FF0000" r="34" stroke="#000000" /><circle cx="502.111614325" cy="519.083529153" fill="#FF0000" r="9" stroke="#000000" /><circle cx="482.337987356" cy="507.529495956" fill="#FF0000" r="9" stroke="#000000" /><circle cx="487.693441477" cy="485.262679439" fill="#FF0000" r="9" stroke="#000000" /><circle cx="451.93710682" cy="589.512671165" fill="#FF0000" r="75" stroke="#000000" /><circle cx="506.556860008" cy="476.082483682" fill="#FF0000" r="9" stroke="#000000" /><circle cx="467.926565739" cy="493.134520068" fill="#FF0000" r="9" stroke="#000000" /><circle cx="478.23323231" cy="449.272809813" fill="#FF0000" r="26" stroke="#000000" /><circle cx="520.068332214" cy="460.843109902" fill="#FF0000" r="9" stroke="#000000" /><circle cx="522.805139892" cy="540.408979132" fill="#FF0000" r="9" stroke="#000000" /><circle cx="448.803152715" cy="500.568179574" fill="#FF0000" r="9" stroke="#000000" /><circle cx="454.93781456" cy="477.426576614" fill="#FF0000" r="8" stroke="#000000" /><circle cx="540.332116739" cy="454.503182975" fill="#FF0000" r="9" stroke="#000000" /><circle cx="517.150957511" cy="440.835782297" fill="#FF0000" r="9" stroke="#000000" /><circle cx="543.016046772" cy="545.20375781" fill="#FF0000" r="9" stroke="#000000" /><circle cx="435.307858601" cy="481.813003514" fill="#FF0000" r="9" stroke="#000000" /><circle cx="442.486822852" cy="460.803132085" fill="#FF0000" r="9" stroke="#000000" /><circle cx="575.945176155" cy="449.504750532" fill="#FF0000" r="23" stroke="#000000" /><circle cx="582.335375982" cy="552.4084522" fill="#FF0000" r="28" stroke="#000000" /><circle cx="429.888178782" cy="506.363373751" fill="#FF0000" r="8" stroke="#000000" /><circle cx="537.650037158" cy="433.981254919" fill="#FF0000" r="9" stroke="#000000" /><circle cx="541.994789034" cy="565.254867205" fill="#FF0000" r="9" stroke="#000000" /><circle cx="510.055840785" cy="404.528118977" fill="#FF0000" r="25" stroke="#000000" /><circle cx="391.539069273" cy="484.239717454" fill="#FF0000" r="32" stroke="#000000" /><circle cx="442.343247532" cy="440.017178335" fill="#FF0000" r="9" stroke="#000000" /><circle cx="587.509001426" cy="484.913096097" fill="#FF0000" r="9" stroke="#000000" /><circle cx="425.404174056" cy="362.080810792" fill="#FF0000" r="67" stroke="#000000" /><circle cx="589.280190431" cy="507.563570363" fill="#FF0000" r="9" stroke="#000000" /><circle cx="423.871775628" cy="455.858257239" fill="#FF0000" r="8" stroke="#000000" /><circle cx="538.32482648" cy="586.270317464" fill="#FF0000" r="9" stroke="#000000" /><circle cx="569.982823137" cy="391.871167278" fill="#FF0000" r="32" stroke="#000000" /><circle cx="605.439193524" cy="494.174498394" fill="#FF0000" r="9" stroke="#000000" /><circle cx="565.624328846" cy="604.267384467" fill="#FF0000" r="21" stroke="#000000" /><circle cx="411.066184845" cy="441.589927907" fill="#FF0000" r="9" stroke="#000000" /><circle cx="635.206868351" cy="460.70950814" fill="#FF0000" r="33" stroke="#000000" /><circle cx="607.522507836" cy="516.623787432" fill="#FF0000" r="9" stroke="#000000" /><circle cx="387.456909772" cy="528.107878643" fill="#FF0000" r="9" stroke="#000000" /><circle cx="617.315595596" cy="534.911474187" fill="#FF0000" r="9" stroke="#000000" /><circle cx="618.855479904" cy="601.041451379" fill="#FF0000" r="30" stroke="#000000" /><circle cx="533.270328451" cy="618.622616919" fill="#FF0000" r="9" stroke="#000000" /><circle cx="391.117645277" cy="439.010879412" fill="#FF0000" r="9" stroke="#000000" /><circle cx="601.144061086" cy="426.891047696" fill="#FF0000" r="8" stroke="#000000" /><circle cx="626.080134998" cy="508.986632228" fill="#FF0000" r="9" stroke="#000000" /><circle cx="504.845036556" cy="368.889490807" fill="#FF0000" r="9" stroke="#000000" /><circle cx="530.097407888" cy="375.5888026" fill="#FF0000" r="8" stroke="#000000" /><circle cx="376.292724134" cy="546.048994537" fill="#FF0000" r="9" stroke="#000000" /><circle cx="621.44559399" cy="553.729021026" fill="#FF0000" r="8" stroke="#000000" /><circle cx="343.476458161" cy="524.309274981" fill="#FF0000" r="28" stroke="#000000" /><circle cx="636.329917347" cy="528.121053257" fill="#FF0000" r="9" stroke="#000000" /><circle cx="549.235874718" cy="631.910835949" fill="#FF0000" r="9" stroke="#000000" /><circle cx="522.417106794" cy="639.814281542" fill="#FF0000" r="9" stroke="#000000" /><circle cx="357.876615316" cy="433.764182454" fill="#FF0000" r="22" stroke="#000000" /><circle cx="527.958003944" cy="339.212593729" fill="#FF0000" r="26" stroke="#000000" /><circle cx="612.459494762" cy="411.348423376" fill="#FF0000" r="9" stroke="#000000" /><circle cx="666.080102551" cy="510.313076004" fill="#FF0000" r="23" stroke="#000000" /><circle cx="640.071812854" cy="547.790032893" fill="#FF0000" r="9" stroke="#000000" /><circle cx="366.442256466" cy="563.767775108" fill="#FF0000" r="8" stroke="#000000" /><circle cx="585.224980611" cy="646.631724671" fill="#FF0000" r="23" stroke="#000000" /><circle cx="349.128608551" cy="475.799519794" fill="#FF0000" r="9" stroke="#000000" /><circle cx="505.877457891" cy="656.689806588" fill="#FF0000" r="9" stroke="#000000" /><circle cx="537.028456269" cy="654.011212015" fill="#FF0000" r="9" stroke="#000000" /><circle cx="630.83446725" cy="416.517174345" fill="#FF0000" r="8" stroke="#000000" /><circle cx="643.775709478" cy="568.360700436" fill="#FF0000" r="9" stroke="#000000" /><circle cx="629.610286901" cy="379.752698452" fill="#FF0000" r="24" stroke="#000000" /><circle cx="363.472868396" cy="583.428666153" fill="#FF0000" r="9" stroke="#000000" /><circle cx="594.72623474" cy="330.240462854" fill="#FF0000" r="32" stroke="#000000" /><circle cx="347.579315231" cy="566.759979437" fill="#FF0000" r="9" stroke="#000000" /><circle cx="660.063290844" cy="551.026884328" fill="#FF0000" r="9" stroke="#000000" /><circle cx="488.78684161" cy="688.46672141" fill="#FF0000" r="25" stroke="#000000" /><circle cx="336.241934962" cy="459.05203137" fill="#FF0000" r="9" stroke="#000000" /><circle cx="329.636959598" cy="483.092177408" fill="#FF0000" r="9" stroke="#000000" /><circle cx="368.626324705" cy="611.017824873" fill="#FF0000" r="9" stroke="#000000" /><circle cx="651.903513914" cy="419.319627786" fill="#FF0000" r="9" stroke="#000000" /><circle cx="552.036310483" cy="667.293940091" fill="#FF0000" r="9" stroke="#000000" /><circle cx="355.964850791" cy="400.255748073" fill="#FF0000" r="9" stroke="#000000" /><circle cx="532.866746628" cy="673.718211383" fill="#FF0000" r="9" stroke="#000000" /><circle cx="494.664415975" cy="322.480165775" fill="#FF0000" r="9" stroke="#000000" /><circle cx="658.308857938" cy="582.248802413" fill="#FF0000" r="9" stroke="#000000" /><circle cx="343.787336525" cy="587.80799377" fill="#FF0000" r="9" stroke="#000000" /><circle cx="677.739528079" cy="477.168001437" fill="#FF0000" r="9" stroke="#000000" /><circle cx="376.436035317" cy="628.679861019" fill="#FF0000" r="8" stroke="#000000" /><circle cx="452.142344977" cy="676.00967262" fill="#FF0000" r="9" stroke="#000000" /><circle cx="684.704739438" cy="432.070630585" fill="#FF0000" r="22" stroke="#000000" /><circle cx="678.903700923" cy="543.005415893" fill="#FF0000" r="9" stroke="#000000" /><circle cx="385.899828194" cy="645.369153516" fill="#FF0000" r="9" stroke="#000000" /><circle cx="328.430743087" cy="566.483005967" fill="#FF0000" r="8" stroke="#000000" /><circle cx="325.201198961" cy="440.029847797" fill="#FF0000" r="8" stroke="#000000" /><circle cx="348.572549289" cy="607.317692722" fill="#FF0000" r="9" stroke="#000000" /><circle cx="410.93858825" cy="680.860788832" fill="#FF0000" r="23" stroke="#000000" /><circle cx="674.198680378" cy="564.048261136" fill="#FF0000" r="8" stroke="#000000" /><circle cx="313.64753561" cy="495.790603879" fill="#FF0000" r="9" stroke="#000000" /><circle cx="619.6986532" cy="643.930790389" fill="#FF0000" r="9" stroke="#000000" /><circle cx="317.25554903" cy="463.265470744" fill="#FF0000" r="8" stroke="#000000" /><circle cx="658.754703978" cy="399.29774598" fill="#FF0000" r="9" stroke="#000000" /><circle cx="330.155886797" cy="415.731754437" fill="#FF0000" r="9" stroke="#000000" /><circle cx="659.286375369" cy="604.307289399" fill="#FF0000" r="8" stroke="#000000" /><circle cx="567.342003691" cy="679.802821276" fill="#FF0000" r="8" stroke="#000000" /><circle cx="355.239015219" cy="626.127940146" fill="#FF0000" r="8" stroke="#000000" /><circle cx="349.377455875" cy="380.933425339" fill="#FF0000" r="8" stroke="#000000" /><circle cx="546.886158291" cy="687.01210699" fill="#FF0000" r="8" stroke="#000000" /><circle cx="525.073432436" cy="691.162661066" fill="#FF0000" r="8" stroke="#000000" /><circle cx="313.72154579" cy="549.720996541" fill="#FF0000" r="8" stroke="#000000" /><circle cx="511.565644169" cy="306.745773979" fill="#FF0000" r="8" stroke="#000000" /><circle cx="555.315698891" cy="314.470666858" fill="#FF0000" r="8" stroke="#000000" /><circle cx="324.265043297" cy="584.972142451" fill="#FF0000" r="8" stroke="#000000" /><circle cx="485.501712859" cy="305.339167602" fill="#FF0000" r="8" stroke="#000000" /><circle cx="695.028976144" cy="491.830638681" fill="#FF0000" r="8" stroke="#000000" /><circle cx="651.697520295" cy="624.112297281" fill="#FF0000" r="8" stroke="#000000" /><circle cx="305.250500149" cy="522.105029015" fill="#FF0000" r="8" stroke="#000000" /><circle cx="305.307026016" cy="477.402524894" fill="#FF0000" r="8" stroke="#000000" /><circle cx="335.272846231" cy="393.788113606" fill="#FF0000" r="8" stroke="#000000" /><circle cx="693.57306481" cy="464.507626455" fill="#FF0000" r="8" stroke="#000000" /><circle cx="677.471335201" cy="586.888924392" fill="#FF0000" r="8" stroke="#000000" /><circle cx="363.503437009" cy="642.879138756" fill="#FF0000" r="8" stroke="#000000" /><circle cx="697.121375752" cy="522.488290765" fill="#FF0000" r="8" stroke="#000000" /><circle cx="638.915737593" cy="641.650901335" fill="#FF0000" r="8" stroke="#000000" /><circle cx="613.657909113" cy="663.592541688" fill="#FF0000" r="8" stroke="#000000" /><circle cx="532.181481025" cy="303.416703967" fill="#FF0000" r="8" stroke="#000000" /><circle cx="328.400676457" cy="602.731067158" fill="#FF0000" r="8" stroke="#000000" /><circle cx="692.852979959" cy="555.931816713" fill="#FF0000" r="8" stroke="#000000" /><circle cx="585.834000037" cy="681.530064831" fill="#FF0000" r="8" stroke="#000000" /><circle cx="453.091364913" cy="695.244001071" fill="#FF0000" r="8" stroke="#000000" /><circle cx="307.130269771" cy="441.315869595" fill="#FF0000" r="8" stroke="#000000" /><circle cx="382.026867322" cy="664.46306566" fill="#FF0000" r="8" stroke="#000000" /><circle cx="308.13092377" cy="566.906633354" fill="#FF0000" r="8" stroke="#000000" /><circle cx="311.095439382" cy="422.986579237" fill="#FF0000" r="8" stroke="#000000" /><circle cx="665.310607001" cy="380.465891006" fill="#FF0000" r="8" stroke="#000000" /><circle cx="334.036605462" cy="619.996631925" fill="#FF0000" r="8" stroke="#000000" /><circle cx="295.212610858" cy="502.272718297" fill="#FF0000" r="8" stroke="#000000" /><circle cx="298.746067868" cy="457.949853731" fill="#FF0000" r="8" stroke="#000000" /><circle cx="297.326365199" cy="539.043024431" fill="#FF0000" r="8" stroke="#000000" /><circle cx="469.921207477" cy="295.803461733" fill="#FF0000" r="8" stroke="#000000" /><circle cx="348.224332803" cy="358.946865165" fill="#FF0000" r="8" stroke="#000000" /><circle cx="638.816058702" cy="346.175613616" fill="#FF0000" r="8" stroke="#000000" /><circle cx="681.518580383" cy="400.08581194" fill="#FF0000" r="8" stroke="#000000" /><circle cx="676.812143386" cy="609.551202418" fill="#FF0000" r="8" stroke="#000000" /><circle cx="560.47107783" cy="699.015699748" fill="#FF0000" r="8" stroke="#000000" /><circle cx="538.065782098" cy="704.487154201" fill="#FF0000" r="8" stroke="#000000" /><circle cx="500.533038423" cy="292.000683006" fill="#FF0000" r="8" stroke="#000000" /><circle cx="632.098547192" cy="661.70161975" fill="#FF0000" r="8" stroke="#000000" /><circle cx="694.114528854" cy="579.06775378" fill="#FF0000" r="8" stroke="#000000" /><circle cx="705.851813846" cy="476.401891259" fill="#FF0000" r="7" stroke="#000000" /><circle cx="603.546816891" cy="681.31601339" fill="#FF0000" r="7" stroke="#000000" /><circle cx="365.628980001" cy="659.818237333" fill="#FF0000" r="7" stroke="#000000" /><circle cx="318.016972811" cy="397.62999553" fill="#FF0000" r="7" stroke="#000000" /><circle cx="516.506313529" cy="708.94904071" fill="#FF0000" r="7" stroke="#000000" /><circle cx="341.080857504" cy="636.663331397" fill="#FF0000" r="7" stroke="#000000" /><circle cx="519.892079288" cy="291.346063585" fill="#FF0000" r="7" stroke="#000000" /><circle cx="554.050504293" cy="297.489005272" fill="#FF0000" r="7" stroke="#000000" /><circle cx="710.4" cy="500.0" fill="#FF0000" r="7" stroke="#000000" /><circle cx="436.939353986" cy="700.7274643" fill="#FF0000" r="7" stroke="#000000" /><circle cx="334.29604272" cy="370.345233247" fill="#FF0000" r="7" stroke="#000000" /><circle cx="659.180452168" cy="362.414595078" fill="#FF0000" r="7" stroke="#000000" /><circle cx="709.126514852" cy="534.786502927" fill="#FF0000" r="7" stroke="#000000" /><circle cx="660.180502823" cy="638.874787183" fill="#FF0000" r="7" stroke="#000000" /><circle cx="308.793138107" cy="593.401156122" fill="#FF0000" r="7" stroke="#000000" /><circle cx="288.1398075" cy="480.022541854" fill="#FF0000" r="7" stroke="#000000" /><circle cx="322.890433749" cy="382.033727098" fill="#FF0000" r="7" stroke="#000000" /><circle cx="461.586671649" cy="710.117529504" fill="#FF0000" r="7" stroke="#000000" /><circle cx="709.028571004" cy="456.045290307" fill="#FF0000" r="7" stroke="#000000" /><circle cx="349.43887768" cy="652.639144539" fill="#FF0000" r="7" stroke="#000000" /><circle cx="286.320159846" cy="517.558072553" fill="#FF0000" r="7" stroke="#000000" /><circle cx="578.029100253" cy="700.555477396" fill="#FF0000" r="7" stroke="#000000" /><circle cx="483.449622687" cy="285.437363433" fill="#FF0000" r="7" stroke="#000000" /><circle cx="620.353481088" cy="679.362871269" fill="#FF0000" r="7" stroke="#000000" /><circle cx="540.070087727" cy="287.749233053" fill="#FF0000" r="7" stroke="#000000" /><circle cx="648.698044605" cy="657.769235058" fill="#FF0000" r="7" stroke="#000000" /><circle cx="290.596620437" cy="556.146813157" fill="#FF0000" r="7" stroke="#000000" /><circle cx="304.254115049" cy="406.80242211" fill="#FF0000" r="7" stroke="#000000" /><circle cx="572.410604668" cy="295.649946583" fill="#FF0000" r="7" stroke="#000000" /><circle cx="692.190519138" cy="602.041973489" fill="#FF0000" r="7" stroke="#000000" /><circle cx="313.186858801" cy="611.582302698" fill="#FF0000" r="7" stroke="#000000" /><circle cx="294.091503303" cy="429.633452635" fill="#FF0000" r="7" stroke="#000000" /><circle cx="351.133641938" cy="341.290934609" fill="#FF0000" r="7" stroke="#000000" /><circle cx="454.40888578" cy="287.229677106" fill="#FF0000" r="7" stroke="#000000" /><circle cx="710.448720937" cy="558.394313558" fill="#FF0000" r="7" stroke="#000000" /><circle cx="377.669634126" cy="680.9249612" fill="#FF0000" r="7" stroke="#000000" /><circle cx="297.244487105" cy="581.171189412" fill="#FF0000" r="7" stroke="#000000" /><circle cx="675.5063161" cy="632.655693467" fill="#FF0000" r="7" stroke="#000000" /><circle cx="287.190561059" cy="444.213418302" fill="#FF0000" r="7" stroke="#000000" /><circle cx="638.541340036" cy="329.101500588" fill="#FF0000" r="7" stroke="#000000" /><circle cx="656.135489587" cy="345.010616843" fill="#FF0000" r="7" stroke="#000000" /><circle cx="685.695091103" cy="382.028252788" fill="#FF0000" r="7" stroke="#000000" /><circle cx="594.086253747" cy="699.750886997" fill="#FF0000" r="7" stroke="#000000" /><circle cx="502.095097991" cy="720.790059931" fill="#FF0000" r="7" stroke="#000000" /><circle cx="721.280077008" cy="511.903256665" fill="#FF0000" r="7" stroke="#000000" /><circle cx="278.493959986" cy="493.547540224" fill="#FF0000" r="7" stroke="#000000" /><circle cx="677.692986307" cy="367.592437462" fill="#FF0000" r="7" stroke="#000000" /><circle cx="550.635476355" cy="716.559018594" fill="#FF0000" r="7" stroke="#000000" /><circle cx="479.529696091" cy="721.455924865" fill="#FF0000" r="7" stroke="#000000" /><circle cx="444.308384641" cy="715.314198275" fill="#FF0000" r="7" stroke="#000000" /><circle cx="319.034311198" cy="629.279462702" fill="#FF0000" r="7" stroke="#000000" /><circle cx="281.368285451" cy="459.233182694" fill="#FF0000" r="7" stroke="#000000" /><circle cx="721.993633301" cy="486.561742155" fill="#FF0000" r="7" stroke="#000000" /><circle cx="527.82774038" cy="721.458476617" fill="#FF0000" r="7" stroke="#000000" /><circle cx="331.296495861" cy="353.858398492" fill="#FF0000" r="7" stroke="#000000" /><circle cx="511.908544138" cy="277.117908803" fill="#FF0000" r="7" stroke="#000000" /><circle cx="697.316910209" cy="402.706439342" fill="#FF0000" r="6" stroke="#000000" /><circle cx="718.462709158" cy="467.958078909" fill="#FF0000" r="6" stroke="#000000" /><circle cx="281.651248431" cy="542.256155625" fill="#FF0000" r="6" stroke="#000000" /><circle cx="714.041107413" cy="439.599964094" fill="#FF0000" r="6" stroke="#000000" /><circle cx="359.962929132" cy="673.804081606" fill="#FF0000" r="6" stroke="#000000" /><circle cx="422.458128045" cy="710.150560536" fill="#FF0000" r="6" stroke="#000000" /><circle cx="334.016523303" cy="650.417703292" fill="#FF0000" r="6" stroke="#000000" /><circle cx="438.989752706" cy="284.468680408" fill="#FF0000" r="6" stroke="#000000" /><circle cx="704.629083068" cy="593.069749988" fill="#FF0000" r="6" stroke="#000000" /><circle cx="638.489487181" cy="677.075413144" fill="#FF0000" r="6" stroke="#000000" /><circle cx="307.192173246" cy="384.413746742" fill="#FF0000" r="6" stroke="#000000" /><circle cx="496.185702578" cy="275.232361904" fill="#FF0000" r="6" stroke="#000000" /><circle cx="555.576535396" cy="282.178309819" fill="#FF0000" r="6" stroke="#000000" /><circle cx="665.732842612" cy="653.062029517" fill="#FF0000" r="6" stroke="#000000" /><circle cx="609.255345019" cy="697.379405169" fill="#FF0000" r="6" stroke="#000000" /><circle cx="285.759520733" cy="570.685055304" fill="#FF0000" r="6" stroke="#000000" /><circle cx="319.051939477" cy="365.26633905" fill="#FF0000" r="6" stroke="#000000" /><circle cx="360.889244498" cy="322.394938969" fill="#FF0000" r="6" stroke="#000000" /><circle cx="470.346191707" cy="276.35740197" fill="#FF0000" r="6" stroke="#000000" /><circle cx="721.299268926" cy="547.786960278" fill="#FF0000" r="6" stroke="#000000" /><circle cx="688.771172426" cy="624.989617412" fill="#FF0000" r="6" stroke="#000000" /><circle cx="565.771524619" cy="716.635792401" fill="#FF0000" r="6" stroke="#000000" /><circle cx="528.431930958" cy="275.392374791" fill="#FF0000" r="6" stroke="#000000" /><circle cx="710.121990659" cy="415.704632147" fill="#FF0000" r="6" stroke="#000000" /><circle cx="672.245909028" cy="351.84067082" fill="#FF0000" r="6" stroke="#000000" /><circle cx="293.672614796" cy="597.020668493" fill="#FF0000" r="6" stroke="#000000" /><circle cx="273.685220555" cy="527.669850106" fill="#FF0000" r="6" stroke="#000000" /><circle cx="272.928241978" cy="479.44722138" fill="#FF0000" r="6" stroke="#000000" /><circle cx="417.99340032" cy="287.258566309" fill="#FF0000" r="6" stroke="#000000" /><circle cx="527.522345831" cy="556.002504229" fill="#FF0000" r="5" stroke="#000000" /><circle cx="417.265906508" cy="514.528240569" fill="#FF0000" r="5" stroke="#000000" /><circle cx="460.270610667" cy="725.324245529" fill="#FF0000" r="6" stroke="#000000" /><circle cx="479.719264189" cy="416.013978812" fill="#FF0000" r="5" stroke="#000000" /><circle cx="552.746567074" cy="428.563037146" fill="#FF0000" r="5" stroke="#000000" /><circle cx="552.719473942" cy="579.269773983" fill="#FF0000" r="5" stroke="#000000" /><circle cx="404.890626855" cy="521.908152364" fill="#FF0000" r="5" stroke="#000000" /><circle cx="536.657780015" cy="602.438504306" fill="#FF0000" r="5" stroke="#000000" /><circle cx="554.78594728" cy="646.917459754" fill="#FF0000" r="5" stroke="#000000" /><circle cx="559.280846994" cy="353.974176326" fill="#FF0000" r="5" stroke="#000000" /><circle cx="521.234038625" cy="661.812717682" fill="#FF0000" r="5" stroke="#000000" /><circle cx="292.502954144" cy="415.614124635" fill="#FF0000" r="5" stroke="#000000" /><circle cx="586.442246852" cy="290.752065818" fill="#FF0000" r="5" stroke="#000000" /><circle cx="716.576684343" cy="571.263874431" fill="#FF0000" r="5" stroke="#000000" /><circle cx="381.435402936" cy="695.683101782" fill="#FF0000" r="6" stroke="#000000" /><circle cx="712.498902" cy="582.633023961" fill="#FF0000" r="5" stroke="#000000" /><circle cx="342.989206999" cy="666.424309767" fill="#FF0000" r="6" stroke="#000000" /><circle cx="724.193773813" cy="454.320772954" fill="#FF0000" r="6" stroke="#000000" /><circle cx="699.183084897" cy="389.049115863" fill="#FF0000" r="5" stroke="#000000" /><circle cx="371.445591572" cy="309.763504885" fill="#FF0000" r="6" stroke="#000000" /><circle cx="728.8" cy="500.0" fill="#FF0000" r="5" stroke="#000000" /><circle cx="633.41392491" cy="313.139397838" fill="#FF0000" r="6" stroke="#000000" /><circle cx="579.391098296" cy="714.584467078" fill="#FF0000" r="5" stroke="#000000" /><circle cx="298.898745249" cy="609.122524427" fill="#FF0000" r="5" stroke="#000000" /><circle cx="624.216447477" cy="694.047504947" fill="#FF0000" r="6" stroke="#000000" /><circle cx="336.086919917" cy="340.369357022" fill="#FF0000" r="5" stroke="#000000" /><circle cx="653.453361874" cy="330.289936275" fill="#FF0000" r="5" stroke="#000000" /><circle cx="269.718099416" cy="507.376060157" fill="#FF0000" r="6" stroke="#000000" /><circle cx="728.321188873" cy="524.199064273" fill="#FF0000" r="5" stroke="#000000" /><circle cx="698.336449401" cy="615.666818228" fill="#FF0000" r="5" stroke="#000000" /><circle cx="652.43702476" cy="671.694826603" fill="#FF0000" r="5" stroke="#000000" /><circle cx="568.567447925" cy="280.877511229" fill="#FF0000" r="5" stroke="#000000" /><circle cx="727.525995002" cy="536.277838941" fill="#FF0000" r="5" stroke="#000000" /><circle cx="276.360066792" cy="555.401627006" fill="#FF0000" r="5" stroke="#000000" /><circle cx="404.328590119" cy="711.355107181" fill="#FF0000" r="6" stroke="#000000" /><circle cx="401.173239295" cy="291.871598842" fill="#FF0000" r="5" stroke="#000000" /><circle cx="482.878244137" cy="270.237066792" fill="#FF0000" r="5" stroke="#000000" /><circle cx="318.590984056" cy="644.619393354" fill="#FF0000" r="6" stroke="#000000" /><circle cx="543.318810284" cy="273.708946983" fill="#FF0000" r="5" stroke="#000000" /><circle cx="304.427299146" cy="624.801116505" fill="#FF0000" r="6" stroke="#000000" /><circle cx="393.006040242" cy="704.953000893" fill="#FF0000" r="5" stroke="#000000" /><circle cx="290.440519522" cy="402.335962905" fill="#FF0000" r="5" stroke="#000000" /><circle cx="295.866563549" cy="391.450563692" fill="#FF0000" r="5" stroke="#000000" /><circle cx="388.483840393" cy="297.472011449" fill="#FF0000" r="5" stroke="#000000" /><circle cx="456.871834468" cy="272.858191127" fill="#FF0000" r="5" stroke="#000000" /><circle cx="599.254813508" cy="291.189267528" fill="#FF0000" r="5" stroke="#000000" /><circle cx="679.988658868" cy="646.383341535" fill="#FF0000" r="5" stroke="#000000" /><circle cx="511.048695001" cy="731.736760871" fill="#FF0000" r="5" stroke="#000000" /><circle cx="362.354475787" cy="686.755748678" fill="#FF0000" r="5" stroke="#000000" /><circle cx="346.905333351" cy="325.684128538" fill="#FF0000" r="6" stroke="#000000" /><circle cx="280.137415314" cy="425.9429689" fill="#FF0000" r="5" stroke="#000000" /><circle cx="306.900966863" cy="371.404652489" fill="#FF0000" r="5" stroke="#000000" /><circle cx="724.845714175" cy="560.334441386" fill="#FF0000" r="5" stroke="#000000" /><circle cx="722.022470085" cy="427.370923334" fill="#FF0000" r="6" stroke="#000000" /><circle cx="707.35743362" cy="605.8240744" fill="#FF0000" r="5" stroke="#000000" /><circle cx="487.900770435" cy="733.286451908" fill="#FF0000" r="5" stroke="#000000" /><circle cx="732.269439787" cy="475.102864806" fill="#FF0000" r="6" stroke="#000000" /><circle cx="427.953491927" cy="722.212197403" fill="#FF0000" r="5" stroke="#000000" /><circle cx="281.64810853" cy="585.239729537" fill="#FF0000" r="6" stroke="#000000" /><circle cx="427.487397211" cy="277.939462225" fill="#FF0000" r="5" stroke="#000000" /><circle cx="616.446087815" cy="297.492546724" fill="#FF0000" r="5" stroke="#000000" /><circle cx="595.842328459" cy="713.910280435" fill="#FF0000" r="5" stroke="#000000" /><circle cx="695.083761994" cy="370.055066253" fill="#FF0000" r="6" stroke="#000000" /><circle cx="267.25947411" cy="466.075265538" fill="#FF0000" r="6" stroke="#000000" /><circle cx="273.170974344" cy="440.907249852" fill="#FF0000" r="5" stroke="#000000" /><circle cx="712.97844415" cy="402.104431523" fill="#FF0000" r="5" stroke="#000000" /><circle cx="538.021119519" cy="732.106515356" fill="#FF0000" r="5" stroke="#000000" /><circle cx="735.68007231" cy="512.284279223" fill="#FF0000" r="5" stroke="#000000" /><circle cx="267.534429752" cy="540.691014355" fill="#FF0000" r="6" stroke="#000000" /><circle cx="691.400168472" cy="638.065113295" fill="#FF0000" r="5" stroke="#000000" /><circle cx="667.587361435" cy="666.164004187" fill="#FF0000" r="5" stroke="#000000" /><circle cx="670.5441498" cy="336.872157592" fill="#FF0000" r="6" stroke="#000000" /><circle cx="686.57924971" cy="355.486389646" fill="#FF0000" r="6" stroke="#000000" /><circle cx="639.692599017" cy="690.215608665" fill="#FF0000" r="5" stroke="#000000" /><circle cx="264.144673805" cy="491.737729994" fill="#FF0000" r="5" stroke="#000000" /><circle cx="506.250290611" cy="264.082781749" fill="#FF0000" r="5" stroke="#000000" /><circle cx="518.521787821" cy="264.727937536" fill="#FF0000" r="5" stroke="#000000" /><circle cx="551.47355284" cy="731.13786656" fill="#FF0000" r="5" stroke="#000000" /><circle cx="441.697677558" cy="729.510520887" fill="#FF0000" r="5" stroke="#000000" /><circle cx="326.762957719" cy="661.440909257" fill="#FF0000" r="5" stroke="#000000" /><circle cx="443.375828512" cy="270.069699249" fill="#FF0000" r="5" stroke="#000000" /><circle cx="729.283442938" cy="440.81095714" fill="#FF0000" r="6" stroke="#000000" /><circle cx="280.025671745" cy="410.194349239" fill="#FF0000" r="6" stroke="#000000" /><circle cx="651.518391224" cy="318.020833278" fill="#FF0000" r="5" stroke="#000000" /><circle cx="344.789885434" cy="680.954083503" fill="#FF0000" r="6" stroke="#000000" /><circle cx="736.563652065" cy="489.422735626" fill="#FF0000" r="5" stroke="#000000" /><circle cx="271.683909357" cy="568.602643924" fill="#FF0000" r="6" stroke="#000000" /><circle cx="316.522932959" cy="347.780665255" fill="#FF0000" r="6" stroke="#000000" /><circle cx="717.412527785" cy="595.841289443" fill="#FF0000" r="5" stroke="#000000" /><circle cx="609.907900255" cy="710.651402705" fill="#FF0000" r="5" stroke="#000000" /><circle cx="263.150390065" cy="518.86855251" fill="#FF0000" r="5" stroke="#000000" /><circle cx="585.155293057" cy="277.327289359" fill="#FF0000" r="6" stroke="#000000" /><circle cx="651.74662778" cy="683.868216279" fill="#FF0000" r="5" stroke="#000000" /><circle cx="559.94648373" cy="268.433467253" fill="#FF0000" r="6" stroke="#000000" /><circle cx="295.169419417" cy="378.02052116" fill="#FF0000" r="5" stroke="#000000" /></svg>